<?xml version="1.0" encoding="utf-8"?>
<!-- Generator: Adobe Illustrator 26.0.0, SVG Export Plug-In . SVG Version: 6.00 Build 0)  -->
<svg version="1.1" id="Layer_1" xmlns="http://www.w3.org/2000/svg" xmlns:xlink="http://www.w3.org/1999/xlink" x="0px" y="0px"
	 viewBox="0 0 181.4 97" style="enable-background:new 0 0 181.4 97;" xml:space="preserve">
<style type="text/css">
	.st0{fill:#1A7B89;}
	.st1{fill:#F7941D;}
</style>
<path class="st0" d="M52.8,36.7c-1-0.9-1.5-2-1.5-3.3c0-1.3,0.5-2.4,1.5-3.3c1-0.9,2.2-1.3,3.8-1.3c1.5,0,2.8,0.4,3.8,1.3
	s1.5,1.9,1.5,3.2c0,1.4-0.5,2.5-1.5,3.4c-1,0.9-2.2,1.4-3.8,1.4C55,38.1,53.8,37.6,52.8,36.7z"/>
<path class="st0" d="M29.2,53.9c-1.3-1.5-2.9-2.5-4.7-3.2c-1.8-0.7-4.2-1.4-7-2c-2.7-0.6-4.8-1.2-6.1-1.8c-1.3-0.6-2-1.6-2-2.8
	c0-1.3,0.6-2.3,1.7-3.1c1.2-0.8,3-1.2,5.4-1.2c3.5,0,6.9,1,10.4,3l2.7-6.6c-1.7-1.1-3.7-1.9-6-2.5c-2.3-0.6-4.6-0.8-7-0.8
	c-3.4,0-6.3,0.5-8.7,1.5c-2.4,1-4.1,2.4-5.3,4.2c-1.2,1.8-1.8,3.7-1.8,5.9c0,2.5,0.7,4.5,1.9,6C4,51.9,5.6,53,7.4,53.6
	c1.8,0.7,4.2,1.4,7,2c1.9,0.4,3.3,0.8,4.4,1.2c1.1,0.4,2,0.8,2.7,1.4c0.7,0.6,1,1.3,1,2.2c0,1.2-0.6,2.2-1.8,2.9
	c-1.2,0.7-3,1.1-5.5,1.1c-2.2,0-4.4-0.4-6.6-1.1c-2.2-0.7-4.1-1.6-5.7-2.8L0,67.1c1.7,1.3,3.9,2.3,6.7,3.1c2.8,0.8,5.6,1.2,8.6,1.2
	c3.4,0,6.3-0.5,8.7-1.5c2.4-1,4.2-2.4,5.4-4.2c1.2-1.8,1.8-3.7,1.8-5.9C31.2,57.3,30.5,55.3,29.2,53.9z"/>
<path class="st0" d="M75.1,42l-7,19.4L61.3,42h-7.1l-7.1,19.4L40.3,42h-7.9l10.4,28.7h8L57.5,53L64,70.8h8L82.5,42H75.1z"/>
<path class="st0" d="M95.4,42.1h-8.3v28.7h8.3V42.1z"/>
<path class="st0" d="M112.6,41.5c0-2.8,1.3-4.2,3.8-4.2c1.3,0,2.4,0.3,3.4,1l2.2-6c-0.8-0.5-1.7-0.9-2.8-1.1
	c-1.1-0.3-2.3-0.4-3.6-0.4c-3.5,0-6.3,1-8.2,2.9c-1.9,1.9-2.9,4.5-2.9,7.8v1.3h-4.4v6.4h4.4v21.7h8.3V49.1h7.2v-6.4h-7.4L112.6,41.5
	L112.6,41.5z"/>
<path class="st0" d="M136.7,35.7c-0.4,0.1-0.7,0.3-1.1,0.4c-0.3,0.1-0.6,0.3-0.8,0.5c0.5-0.1,0.9-0.2,1.4-0.4
	c0.4-0.1,0.8-0.3,1.3-0.4v-0.1H136.7z M144.4,63.5c-0.9,0.7-2.1,1.1-3.4,1.1c-1.1,0-2-0.3-2.6-1c-0.6-0.7-0.9-1.6-0.9-2.8V49.1h7.2
	v-6.4h-7.2v-3.1c-0.1,0-0.1,0-0.2,0c-1.1,0-2-0.4-2.7-1.1c-0.7-0.7-1-1.7-1-2.8h-4.4v7h-4.4v6.4h4.4v11.8c0,3.4,0.9,6,2.8,7.7
	c1.9,1.7,4.5,2.6,8,2.6c1.3,0,2.6-0.1,3.8-0.5c1.2-0.3,2.2-0.7,3-1.4L144.4,63.5z"/>
<path class="st1" d="M146.6,82.6l-2.5,3.1H95.8l2.5-3.1H146.6z"/>
<path class="st1" d="M5.4,80h1.4l-1.2,5.9H4.2L5.4,80z M1.5,85.9H0.1L1.3,80h1.4L1.5,85.9z M4.8,83.5H1.9l0.2-1.2H5L4.8,83.5z
	 M9.3,86c-0.5,0-0.9-0.1-1.2-0.3c-0.3-0.2-0.6-0.4-0.8-0.7C7.1,84.7,7,84.4,7,84c0-0.5,0.1-1,0.4-1.4c0.2-0.4,0.6-0.7,1-0.9
	c0.4-0.2,0.9-0.3,1.4-0.3c0.5,0,0.9,0.1,1.2,0.3c0.3,0.2,0.6,0.4,0.8,0.7c0.2,0.3,0.3,0.7,0.3,1.1c0,0.5-0.1,1-0.4,1.4
	c-0.2,0.4-0.6,0.7-1,0.9C10.3,85.9,9.8,86,9.3,86z M9.3,84.9c0.3,0,0.5-0.1,0.7-0.2c0.2-0.1,0.4-0.3,0.5-0.5
	c0.1-0.2,0.2-0.5,0.2-0.8c0-0.3-0.1-0.5-0.3-0.7s-0.4-0.3-0.8-0.3c-0.3,0-0.5,0.1-0.7,0.2c-0.2,0.1-0.4,0.3-0.5,0.5
	c-0.1,0.2-0.2,0.5-0.2,0.8c0,0.3,0.1,0.6,0.3,0.7C8.8,84.8,9,84.9,9.3,84.9z M12.4,85.9l1.2-6.3H15l-1.2,6.3H12.4z M14.9,85.9
	l0.9-4.5h1.3l-0.9,4.5H14.9z M16.7,80.7c-0.2,0-0.4-0.1-0.6-0.2C16,80.4,16,80.3,16,80.1c0-0.2,0.1-0.4,0.2-0.6
	c0.2-0.2,0.4-0.2,0.6-0.2c0.2,0,0.4,0.1,0.6,0.2c0.1,0.1,0.2,0.3,0.2,0.5c0,0.2-0.1,0.4-0.2,0.6C17.2,80.7,17,80.7,16.7,80.7z
	 M19.5,86c-0.3,0-0.7-0.1-1-0.2c-0.3-0.2-0.5-0.4-0.7-0.7c-0.2-0.3-0.3-0.7-0.3-1.1c0-0.4,0.1-0.7,0.2-1.1c0.1-0.3,0.3-0.6,0.5-0.8
	c0.2-0.2,0.5-0.4,0.8-0.5c0.3-0.1,0.6-0.2,1-0.2c0.4,0,0.7,0.1,0.9,0.2c0.3,0.1,0.5,0.3,0.6,0.6c0.1,0.3,0.2,0.6,0.2,1
	c0,0.4-0.1,0.8-0.2,1.2c-0.1,0.4-0.2,0.7-0.4,0.9c-0.2,0.3-0.4,0.5-0.7,0.6C20.2,85.9,19.9,86,19.5,86z M20,84.9
	c0.3,0,0.5-0.1,0.7-0.2c0.2-0.1,0.4-0.3,0.5-0.5c0.1-0.2,0.2-0.5,0.2-0.8c0-0.3-0.1-0.6-0.3-0.7c-0.2-0.2-0.4-0.3-0.8-0.3
	c-0.3,0-0.5,0.1-0.7,0.2c-0.2,0.1-0.4,0.3-0.5,0.5c-0.1,0.2-0.2,0.5-0.2,0.8c0,0.3,0.1,0.6,0.3,0.7C19.4,84.8,19.6,84.9,20,84.9z
	 M20.8,85.9L21,85l0.3-1.4l0.2-1.4l0.5-2.7h1.3l-1.2,6.3H20.8z M25.4,86c-0.3,0-0.7-0.1-1-0.2c-0.3-0.2-0.5-0.4-0.7-0.7
	c-0.2-0.3-0.3-0.7-0.3-1.1c0-0.4,0.1-0.7,0.2-1.1c0.1-0.3,0.3-0.6,0.5-0.8c0.2-0.2,0.5-0.4,0.8-0.5c0.3-0.1,0.6-0.2,1-0.2
	c0.4,0,0.7,0.1,1,0.2c0.3,0.1,0.5,0.4,0.6,0.7c0.1,0.3,0.2,0.7,0.1,1.1c0,0.5-0.1,1-0.3,1.4c-0.2,0.4-0.5,0.7-0.8,0.9
	C26.2,85.9,25.8,86,25.4,86z M25.8,84.9c0.3,0,0.5-0.1,0.7-0.2c0.2-0.1,0.4-0.3,0.5-0.5c0.1-0.2,0.2-0.5,0.2-0.8
	c0-0.3-0.1-0.6-0.3-0.7c-0.2-0.2-0.4-0.3-0.8-0.3c-0.3,0-0.5,0.1-0.7,0.2c-0.2,0.1-0.4,0.3-0.5,0.5c-0.1,0.2-0.2,0.5-0.2,0.8
	c0,0.3,0.1,0.6,0.3,0.7C25.2,84.8,25.5,84.9,25.8,84.9z M26.7,85.9l0.2-0.9l0.3-1.4l0.2-1.4l0.2-0.9h1.3l-0.9,4.5H26.7z M29.5,87.6
	c-0.2,0-0.5,0-0.7-0.1c-0.2-0.1-0.4-0.2-0.5-0.3l0.6-0.9c0.1,0.1,0.2,0.2,0.3,0.2c0.1,0.1,0.3,0.1,0.4,0.1c0.2,0,0.3,0,0.4-0.1
	c0.1-0.1,0.3-0.2,0.4-0.4l0.4-0.6l0.1-0.1l2.4-3.9h1.3l-3,4.8c-0.2,0.4-0.4,0.6-0.7,0.8c-0.2,0.2-0.4,0.4-0.7,0.4
	C30,87.6,29.8,87.6,29.5,87.6z M30.5,86.1l-1.1-4.7h1.3l0.8,3.8L30.5,86.1z M35.8,86c-0.4,0-0.8,0-1.1-0.1c-0.3-0.1-0.6-0.2-0.8-0.3
	l0.5-1c0.2,0.1,0.4,0.2,0.7,0.3c0.3,0.1,0.6,0.1,0.9,0.1c0.3,0,0.5,0,0.7-0.1c0.1-0.1,0.2-0.2,0.2-0.3c0-0.1-0.1-0.2-0.2-0.2
	c-0.1-0.1-0.3-0.1-0.4-0.1c-0.2,0-0.4-0.1-0.6-0.1c-0.2,0-0.4-0.1-0.6-0.2c-0.2-0.1-0.3-0.2-0.4-0.4c-0.1-0.2-0.2-0.4-0.2-0.6
	c0-0.3,0.1-0.6,0.3-0.9c0.2-0.2,0.5-0.4,0.8-0.5c0.3-0.1,0.7-0.2,1.2-0.2c0.3,0,0.6,0,0.9,0.1c0.3,0.1,0.6,0.2,0.8,0.3l-0.5,1
	c-0.2-0.1-0.4-0.2-0.7-0.3c-0.2-0.1-0.5-0.1-0.7-0.1c-0.3,0-0.5,0-0.7,0.1c-0.1,0.1-0.2,0.2-0.2,0.3c0,0.1,0.1,0.2,0.2,0.3
	c0.1,0.1,0.3,0.1,0.4,0.1c0.2,0,0.4,0.1,0.6,0.1c0.2,0,0.4,0.1,0.6,0.2c0.2,0.1,0.3,0.2,0.4,0.3c0.1,0.1,0.2,0.3,0.2,0.6
	c0,0.3-0.1,0.6-0.3,0.9c-0.2,0.2-0.5,0.4-0.8,0.5C36.6,85.9,36.2,86,35.8,86z M47.6,81.3c0.4,0,0.7,0.1,1,0.2
	c0.3,0.2,0.5,0.4,0.6,0.7c0.1,0.3,0.1,0.7,0,1.1l-0.5,2.5h-1.3l0.5-2.4c0.1-0.3,0.1-0.6-0.1-0.8c-0.1-0.2-0.3-0.3-0.6-0.3
	c-0.3,0-0.6,0.1-0.8,0.3c-0.2,0.2-0.3,0.5-0.4,0.9l-0.5,2.3h-1.3l0.5-2.4c0.1-0.3,0-0.6-0.1-0.8c-0.1-0.2-0.3-0.3-0.6-0.3
	c-0.3,0-0.6,0.1-0.8,0.3c-0.2,0.2-0.3,0.5-0.4,0.9l-0.5,2.3H41l0.9-4.5h1.2l-0.2,1.2l-0.2-0.3c0.2-0.3,0.5-0.6,0.8-0.7
	c0.3-0.2,0.6-0.2,1-0.2c0.3,0,0.5,0.1,0.8,0.2c0.2,0.1,0.4,0.3,0.5,0.5c0.1,0.2,0.2,0.4,0.3,0.7l-0.5-0.1c0.2-0.4,0.5-0.7,0.9-0.9
	C46.8,81.4,47.2,81.3,47.6,81.3z M51.9,86c-0.3,0-0.7-0.1-1-0.2c-0.3-0.2-0.5-0.4-0.7-0.7C50.1,84.8,50,84.4,50,84
	c0-0.4,0.1-0.7,0.2-1.1c0.1-0.3,0.3-0.6,0.5-0.8c0.2-0.2,0.5-0.4,0.8-0.5c0.3-0.1,0.6-0.2,1-0.2c0.4,0,0.7,0.1,1,0.2
	c0.3,0.1,0.5,0.4,0.6,0.7c0.1,0.3,0.2,0.7,0.1,1.1c0,0.5-0.1,1-0.3,1.4c-0.2,0.4-0.5,0.7-0.8,0.9C52.8,85.9,52.4,86,51.9,86z
	 M52.3,84.9c0.3,0,0.5-0.1,0.7-0.2c0.2-0.1,0.4-0.3,0.5-0.5c0.1-0.2,0.2-0.5,0.2-0.8c0-0.3-0.1-0.6-0.3-0.7
	c-0.2-0.2-0.4-0.3-0.8-0.3c-0.3,0-0.5,0.1-0.7,0.2c-0.2,0.1-0.4,0.3-0.5,0.5c-0.1,0.2-0.2,0.5-0.2,0.8c0,0.3,0.1,0.6,0.3,0.7
	C51.8,84.8,52,84.9,52.3,84.9z M53.3,85.9l0.2-0.9l0.3-1.4l0.2-1.4l0.2-0.9h1.3l-0.9,4.5H53.3z M57.8,86c-0.3,0-0.7-0.1-1-0.2
	c-0.3-0.2-0.5-0.4-0.7-0.7c-0.2-0.3-0.3-0.7-0.3-1.1c0-0.4,0.1-0.7,0.2-1.1c0.1-0.3,0.3-0.6,0.5-0.8c0.2-0.2,0.5-0.4,0.8-0.5
	c0.3-0.1,0.6-0.2,1-0.2c0.4,0,0.7,0.1,0.9,0.2c0.3,0.1,0.5,0.3,0.6,0.6c0.1,0.3,0.2,0.6,0.2,1c0,0.4-0.1,0.8-0.2,1.2
	c-0.1,0.4-0.2,0.7-0.4,0.9c-0.2,0.3-0.4,0.5-0.7,0.6C58.5,85.9,58.2,86,57.8,86z M58.2,84.9c0.3,0,0.5-0.1,0.7-0.2
	c0.2-0.1,0.4-0.3,0.5-0.5c0.1-0.2,0.2-0.5,0.2-0.8c0-0.3-0.1-0.6-0.3-0.7c-0.2-0.2-0.4-0.3-0.8-0.3c-0.3,0-0.5,0.1-0.7,0.2
	c-0.2,0.1-0.4,0.3-0.5,0.5c-0.1,0.2-0.2,0.5-0.2,0.8c0,0.3,0.1,0.6,0.3,0.7C57.6,84.8,57.9,84.9,58.2,84.9z M59.1,85.9l0.2-0.9
	l0.3-1.4l0.2-1.4l0.5-2.7h1.3l-1.2,6.3H59.1z M64,86c-0.5,0-0.9-0.1-1.2-0.3c-0.3-0.2-0.6-0.4-0.8-0.7c-0.2-0.3-0.3-0.7-0.3-1.1
	c0-0.5,0.1-1,0.3-1.4c0.2-0.4,0.5-0.7,0.9-0.9c0.4-0.2,0.9-0.3,1.4-0.3c0.4,0,0.8,0.1,1.1,0.3c0.3,0.2,0.6,0.4,0.7,0.7
	c0.2,0.3,0.3,0.6,0.3,1.1c0,0.1,0,0.2,0,0.4c0,0.1,0,0.2-0.1,0.3h-3.8l0.1-0.8h3l-0.5,0.2c0-0.3,0-0.5,0-0.6
	c-0.1-0.2-0.2-0.3-0.4-0.4c-0.2-0.1-0.4-0.1-0.6-0.1c-0.3,0-0.5,0.1-0.7,0.2c-0.2,0.1-0.3,0.3-0.4,0.6c-0.1,0.2-0.2,0.5-0.2,0.8
	c0,0.3,0.1,0.6,0.3,0.8c0.2,0.2,0.5,0.3,0.9,0.3c0.2,0,0.5,0,0.7-0.1c0.2-0.1,0.4-0.2,0.5-0.3l0.5,0.9c-0.3,0.2-0.6,0.4-0.9,0.5
	C64.7,85.9,64.3,86,64,86z M71.7,86c-0.5,0-0.9-0.1-1.2-0.3c-0.3-0.2-0.6-0.4-0.8-0.7c-0.2-0.3-0.3-0.7-0.3-1.1c0-0.5,0.1-1,0.3-1.4
	c0.2-0.4,0.5-0.7,0.9-0.9c0.4-0.2,0.9-0.3,1.4-0.3c0.4,0,0.8,0.1,1.1,0.3c0.3,0.2,0.6,0.4,0.7,0.7c0.2,0.3,0.3,0.6,0.3,1.1
	c0,0.1,0,0.2,0,0.4c0,0.1,0,0.2-0.1,0.3h-3.8l0.1-0.8h3L73,83.5c0-0.3,0-0.5,0-0.6c-0.1-0.2-0.2-0.3-0.4-0.4
	c-0.2-0.1-0.4-0.1-0.6-0.1c-0.3,0-0.5,0.1-0.7,0.2c-0.2,0.1-0.3,0.3-0.4,0.6c-0.1,0.2-0.2,0.5-0.2,0.8c0,0.3,0.1,0.6,0.3,0.8
	c0.2,0.2,0.5,0.3,0.9,0.3c0.2,0,0.5,0,0.7-0.1c0.2-0.1,0.4-0.2,0.5-0.3l0.5,0.9c-0.3,0.2-0.6,0.4-0.9,0.5C72.4,85.9,72,86,71.7,86z
	 M76.6,86c-0.3,0-0.7-0.1-1-0.2c-0.3-0.2-0.5-0.4-0.7-0.7c-0.2-0.3-0.3-0.7-0.3-1.1c0-0.4,0.1-0.7,0.2-1.1c0.1-0.3,0.3-0.6,0.5-0.8
	c0.2-0.2,0.5-0.4,0.8-0.5c0.3-0.1,0.6-0.2,1-0.2c0.4,0,0.7,0.1,1,0.2c0.3,0.1,0.5,0.4,0.6,0.7c0.1,0.3,0.2,0.7,0.1,1.1
	c0,0.5-0.1,1-0.3,1.4c-0.2,0.4-0.5,0.7-0.8,0.9C77.5,85.9,77.1,86,76.6,86z M77,84.9c0.3,0,0.5-0.1,0.7-0.2c0.2-0.1,0.4-0.3,0.5-0.5
	c0.1-0.2,0.2-0.5,0.2-0.8c0-0.3-0.1-0.6-0.3-0.7c-0.2-0.2-0.4-0.3-0.8-0.3c-0.3,0-0.5,0.1-0.7,0.2c-0.2,0.1-0.4,0.3-0.5,0.5
	C76,83.3,76,83.6,76,83.9c0,0.3,0.1,0.6,0.3,0.7C76.4,84.8,76.7,84.9,77,84.9z M77.9,85.9l0.2-0.9l0.3-1.4l0.2-1.4l0.2-0.9h1.3
	l-0.9,4.5H77.9z M82.1,86c-0.4,0-0.8,0-1.1-0.1c-0.3-0.1-0.6-0.2-0.8-0.3l0.5-1c0.2,0.1,0.4,0.2,0.7,0.3c0.3,0.1,0.6,0.1,0.9,0.1
	c0.3,0,0.5,0,0.7-0.1c0.1-0.1,0.2-0.2,0.2-0.3c0-0.1-0.1-0.2-0.2-0.2c-0.1-0.1-0.3-0.1-0.4-0.1c-0.2,0-0.4-0.1-0.6-0.1
	c-0.2,0-0.4-0.1-0.6-0.2c-0.2-0.1-0.3-0.2-0.4-0.4c-0.1-0.2-0.2-0.4-0.2-0.6c0-0.3,0.1-0.6,0.3-0.9c0.2-0.2,0.5-0.4,0.8-0.5
	c0.3-0.1,0.7-0.2,1.2-0.2c0.3,0,0.6,0,0.9,0.1c0.3,0.1,0.6,0.2,0.8,0.3l-0.5,1c-0.2-0.1-0.4-0.2-0.7-0.3c-0.2-0.1-0.5-0.1-0.7-0.1
	c-0.3,0-0.5,0-0.7,0.1c-0.1,0.1-0.2,0.2-0.2,0.3c0,0.1,0.1,0.2,0.2,0.3c0.1,0.1,0.3,0.1,0.4,0.1c0.2,0,0.4,0.1,0.6,0.1
	c0.2,0,0.4,0.1,0.6,0.2c0.2,0.1,0.3,0.2,0.4,0.3c0.1,0.1,0.2,0.3,0.2,0.6c0,0.3-0.1,0.6-0.3,0.9c-0.2,0.2-0.5,0.4-0.8,0.5
	C82.9,85.9,82.5,86,82.1,86z M85.1,87.6c-0.2,0-0.5,0-0.7-0.1c-0.2-0.1-0.4-0.2-0.5-0.3l0.6-0.9c0.1,0.1,0.2,0.2,0.3,0.2
	c0.1,0.1,0.3,0.1,0.4,0.1c0.2,0,0.3,0,0.4-0.1c0.1-0.1,0.3-0.2,0.4-0.4l0.4-0.6l0.1-0.1l2.4-3.9h1.3l-3,4.8
	c-0.2,0.4-0.4,0.6-0.7,0.8c-0.2,0.2-0.4,0.4-0.7,0.4C85.7,87.6,85.4,87.6,85.1,87.6z M86.1,86.1L85,81.4h1.3l0.8,3.8L86.1,86.1z"/>
<path class="st0" d="M181.4,22.6c-0.2,0.1-0.5,0.2-0.7,0.3c-0.6,0.3-1.3,0.6-1.8,1c-1.1,0.8-2.2,1.8-3.3,2.7
	c-1.2,0.8-2.4,1.6-3.7,2.2c-1.9,1-3.9,1.4-6,1.4c-3.1-0.1-6.2-0.2-9.3-0.3c-0.2,0-0.4,0-0.6,0.1c-1.1,0.3-2.1,0.7-3.2,1
	c-3.9,1.2-7.8,2.5-11.7,3.7c-1.2,0.4-2.3,0.7-3.5,1.1c-0.4,0.1-0.8,0.3-1.3,0.4c-0.5,0.1-0.9,0.2-1.4,0.4c0.3-0.2,0.6-0.4,0.8-0.5
	c0.4-0.1,0.7-0.3,1.1-0.4c1.4-0.5,2.7-1,4.1-1.5c0.6-0.2,1.2-0.5,1.8-0.7c2.2-0.8,4.4-1.7,6.6-2.6c0.5-0.2,1-0.6,1.5-0.9
	c0.3-0.2,0.2-0.5-0.1-0.6c-0.4-0.1-0.8-0.1-1.2-0.1c-1.6,0.1-3.1,0.3-4.6,0.5c-3.4,0.6-6.8,1.2-10.2,1.7c-0.7,0.1-1.4,0.1-2.1,0.2
	c0-0.1,0.1-0.1,0.1-0.1c6.5-1.5,13.1-3,19.7-4.3c2-0.4,3.8-1.1,5.4-2.2c1.1-0.7,2.2-1.4,3.3-2c0.1,0,0.2-0.1,0.2-0.2
	c-0.7-0.4-0.8-1-0.2-1.8c-0.5-0.7-0.4-1.2,0.4-1.9c-0.8-0.4-0.7-1.1,0-1.7c-0.5-0.2-0.7-0.4-0.5-0.8c0.1-0.2,0.3-0.5,0.4-0.7
	c0.1-0.1,0.2-0.2,0.3-0.3c-0.4-0.2-0.8-0.4-1.1-0.6c-0.5-0.4-0.9-0.8-0.7-1.5c-0.1,0-0.2-0.1-0.3-0.2c-0.5-0.4-1.1-0.7-1.6-1.1
	c-0.3-0.2-0.4-0.5-0.1-0.8c-0.8-0.5-1.8-0.9-1.8-2c-0.3-0.2-0.7-0.3-1-0.6c-0.2-0.2-0.4-0.4-0.5-0.7c-0.1-0.2-0.1-0.3-0.3-0.3
	c-1-0.4-2-1-2.8-1.7c-0.9-0.8-1.6-1.8-2.1-3c0.6,0.3,1.1,0.7,1.6,1c1.5,0.7,2.9,1.4,4.4,2c3.2,1.4,6.4,2.6,9.6,4
	c2.1,0.9,4.1,2,5.9,3.3c0.9,0.7,1.8,1.5,2.3,2.5c0.7,1.5,0.6,2.9-0.3,4.2c-0.7,1-1.4,1.9-2.5,2.4c0.3-0.1,0.6-0.2,0.8-0.4
	c0.6-0.5,1.2-1.1,1.8-1.7c0.3-0.4,0.7-0.6,1.2-0.7c0.1,0,0.2,0,0.3-0.1c2.2-0.5,4.2,0.2,5,2.4c0,0.1,0.2,0.2,0.3,0.2
	C180.1,22.4,180.7,22.5,181.4,22.6C181.4,22.6,181.4,22.6,181.4,22.6z"/>
<path class="st0" d="M155.6,14.9c0.2,1,1.1,1.2,1.8,1.5c-0.2,0.4,0,0.6,0.3,0.8c0.5,0.3,1.1,0.5,1.7,0.8c0,0.5,0.4,1,1.1,1.2
	c-0.4-0.5-0.2-1,0-1.5c0-0.1,0.1-0.3,0-0.3c-0.3-0.5-0.2-1,0.1-1.5c-0.1,0-0.2-0.1-0.3-0.2c-0.7-0.4-1.1-0.9-1.2-1.7
	c0-0.1-0.1-0.2-0.3-0.3c-0.4-0.2-0.8-0.4-1.1-0.7c-0.4-0.3-0.7-0.7-0.7-1.4c-0.7-0.1-1.4-0.2-2.1-0.2c-1.8-0.1-3.6-0.3-5.3-1
	c-0.2-0.1-0.5-0.2-0.8-0.3c0.1,0.2,0.1,0.4,0.2,0.5c0.3,0.4,0.5,0.8,0.9,1.1c1.1,1,2.3,1.9,3.8,2.3c0,0,0.1,0,0.1,0.1
	c0.2,0.6,0.8,0.7,1.4,0.9C155.4,14.9,155.5,14.9,155.6,14.9z"/>
</svg>
